<svg id="visual" viewBox="0 0 900 600" width="900" height="600" xmlns="http://www.w3.org/2000/svg" xmlns:xlink="http://www.w3.org/1999/xlink" version="1.1"><g stroke-width="1" stroke-linejoin="bevel"><path d="M481 275L472 237L434 232Z" fill="#b1c9d8" stroke="#b1c9d8"></path><path d="M434 232L415 273L481 275Z" fill="#b1c9d8" stroke="#b1c9d8"></path><path d="M415 273L463 388L481 275Z" fill="#6b9dbb" stroke="#6b9dbb"></path><path d="M415 273L407 386L463 388Z" fill="#c2d4df" stroke="#c2d4df"></path><path d="M463 388L578 319L481 275Z" fill="#297ea6" stroke="#297ea6"></path><path d="M481 275L580 182L472 237Z" fill="#d3dfe7" stroke="#d3dfe7"></path><path d="M578 319L580 182L481 275Z" fill="#6b9dbb" stroke="#6b9dbb"></path><path d="M472 237L527 116L434 232Z" fill="#a0bed0" stroke="#a0bed0"></path><path d="M580 182L527 116L472 237Z" fill="#7da8c2" stroke="#7da8c2"></path><path d="M261 177L281 282L415 273Z" fill="#e4eaee" stroke="#e4eaee"></path><path d="M415 273L284 372L407 386Z" fill="#b1c9d8" stroke="#b1c9d8"></path><path d="M261 177L415 273L434 232Z" fill="#d3dfe7" stroke="#d3dfe7"></path><path d="M281 282L284 372L415 273Z" fill="#4388ad" stroke="#4388ad"></path><path d="M527 116L422 61L434 232Z" fill="#7da8c2" stroke="#7da8c2"></path><path d="M422 61L261 177L434 232Z" fill="#297ea6" stroke="#297ea6"></path><path d="M281 282L182 265L284 372Z" fill="#7da8c2" stroke="#7da8c2"></path><path d="M463 388L624 380L578 319Z" fill="#7da8c2" stroke="#7da8c2"></path><path d="M711 194L633 132L580 182Z" fill="#6b9dbb" stroke="#6b9dbb"></path><path d="M305 504L417 476L407 386Z" fill="#a0bed0" stroke="#a0bed0"></path><path d="M407 386L417 476L463 388Z" fill="#a0bed0" stroke="#a0bed0"></path><path d="M463 388L533 486L624 380Z" fill="#d3dfe7" stroke="#d3dfe7"></path><path d="M580 182L633 132L527 116Z" fill="#d3dfe7" stroke="#d3dfe7"></path><path d="M493 0L432 0L422 61Z" fill="#5893b4" stroke="#5893b4"></path><path d="M711 194L580 182L578 319Z" fill="#4388ad" stroke="#4388ad"></path><path d="M417 476L533 486L463 388Z" fill="#c2d4df" stroke="#c2d4df"></path><path d="M666 431L690 328L624 380Z" fill="#c2d4df" stroke="#c2d4df"></path><path d="M624 380L690 328L578 319Z" fill="#297ea6" stroke="#297ea6"></path><path d="M205 78L193 206L261 177Z" fill="#297ea6" stroke="#297ea6"></path><path d="M261 177L193 206L281 282Z" fill="#8fb3c9" stroke="#8fb3c9"></path><path d="M493 0L422 61L527 116Z" fill="#8fb3c9" stroke="#8fb3c9"></path><path d="M422 61L261 74L261 177Z" fill="#4388ad" stroke="#4388ad"></path><path d="M608 0L493 0L527 116Z" fill="#c2d4df" stroke="#c2d4df"></path><path d="M270 0L261 74L422 61Z" fill="#4388ad" stroke="#4388ad"></path><path d="M193 206L182 265L281 282Z" fill="#8fb3c9" stroke="#8fb3c9"></path><path d="M690 328L711 194L578 319Z" fill="#e4eaee" stroke="#e4eaee"></path><path d="M633 132L608 0L527 116Z" fill="#e4eaee" stroke="#e4eaee"></path><path d="M608 494L666 431L624 380Z" fill="#297ea6" stroke="#297ea6"></path><path d="M533 486L608 494L624 380Z" fill="#5893b4" stroke="#5893b4"></path><path d="M599 600L608 494L533 486Z" fill="#5893b4" stroke="#5893b4"></path><path d="M284 372L305 504L407 386Z" fill="#6b9dbb" stroke="#6b9dbb"></path><path d="M417 476L516 600L533 486Z" fill="#b1c9d8" stroke="#b1c9d8"></path><path d="M197 466L305 504L284 372Z" fill="#6b9dbb" stroke="#6b9dbb"></path><path d="M182 265L173 387L284 372Z" fill="#6b9dbb" stroke="#6b9dbb"></path><path d="M261 74L205 78L261 177Z" fill="#6b9dbb" stroke="#6b9dbb"></path><path d="M100 319L173 387L182 265Z" fill="#e4eaee" stroke="#e4eaee"></path><path d="M193 0L205 78L261 74Z" fill="#d3dfe7" stroke="#d3dfe7"></path><path d="M729 97L608 0L633 132Z" fill="#c2d4df" stroke="#c2d4df"></path><path d="M432 0L270 0L422 61Z" fill="#d3dfe7" stroke="#d3dfe7"></path><path d="M173 387L197 466L284 372Z" fill="#b1c9d8" stroke="#b1c9d8"></path><path d="M711 194L729 97L633 132Z" fill="#6b9dbb" stroke="#6b9dbb"></path><path d="M816 184L729 97L711 194Z" fill="#e4eaee" stroke="#e4eaee"></path><path d="M100 319L138 391L173 387Z" fill="#5893b4" stroke="#5893b4"></path><path d="M173 387L131 469L197 466Z" fill="#c2d4df" stroke="#c2d4df"></path><path d="M100 319L182 265L64 185Z" fill="#8fb3c9" stroke="#8fb3c9"></path><path d="M315 600L384 600L305 504Z" fill="#4388ad" stroke="#4388ad"></path><path d="M305 504L384 600L417 476Z" fill="#b1c9d8" stroke="#b1c9d8"></path><path d="M384 600L516 600L417 476Z" fill="#c2d4df" stroke="#c2d4df"></path><path d="M608 494L677 531L666 431Z" fill="#297ea6" stroke="#297ea6"></path><path d="M599 600L677 531L608 494Z" fill="#e4eaee" stroke="#e4eaee"></path><path d="M666 431L790 415L690 328Z" fill="#7da8c2" stroke="#7da8c2"></path><path d="M821 324L816 184L711 194Z" fill="#e4eaee" stroke="#e4eaee"></path><path d="M64 185L182 265L193 206Z" fill="#7da8c2" stroke="#7da8c2"></path><path d="M201 600L315 600L305 504Z" fill="#297ea6" stroke="#297ea6"></path><path d="M270 0L193 0L261 74Z" fill="#d3dfe7" stroke="#d3dfe7"></path><path d="M91 79L64 185L193 206Z" fill="#b1c9d8" stroke="#b1c9d8"></path><path d="M516 600L599 600L533 486Z" fill="#a0bed0" stroke="#a0bed0"></path><path d="M765 511L790 415L666 431Z" fill="#c2d4df" stroke="#c2d4df"></path><path d="M821 324L711 194L690 328Z" fill="#5893b4" stroke="#5893b4"></path><path d="M790 415L821 324L690 328Z" fill="#a0bed0" stroke="#a0bed0"></path><path d="M0 371L131 469L138 391Z" fill="#4388ad" stroke="#4388ad"></path><path d="M138 391L131 469L173 387Z" fill="#7da8c2" stroke="#7da8c2"></path><path d="M197 466L201 600L305 504Z" fill="#c2d4df" stroke="#c2d4df"></path><path d="M798 85L737 0L729 97Z" fill="#a0bed0" stroke="#a0bed0"></path><path d="M729 97L737 0L608 0Z" fill="#c2d4df" stroke="#c2d4df"></path><path d="M816 184L798 85L729 97Z" fill="#b1c9d8" stroke="#b1c9d8"></path><path d="M91 79L193 206L205 78Z" fill="#e4eaee" stroke="#e4eaee"></path><path d="M100 319L0 371L138 391Z" fill="#8fb3c9" stroke="#8fb3c9"></path><path d="M677 531L765 511L666 431Z" fill="#b1c9d8" stroke="#b1c9d8"></path><path d="M900 386L900 275L821 324Z" fill="#a0bed0" stroke="#a0bed0"></path><path d="M712 600L765 511L677 531Z" fill="#6b9dbb" stroke="#6b9dbb"></path><path d="M134 0L91 79L205 78Z" fill="#b1c9d8" stroke="#b1c9d8"></path><path d="M193 0L134 0L205 78Z" fill="#e4eaee" stroke="#e4eaee"></path><path d="M131 469L201 600L197 466Z" fill="#d3dfe7" stroke="#d3dfe7"></path><path d="M798 85L778 0L737 0Z" fill="#4388ad" stroke="#4388ad"></path><path d="M599 600L712 600L677 531Z" fill="#6b9dbb" stroke="#6b9dbb"></path><path d="M0 88L64 185L91 79Z" fill="#c2d4df" stroke="#c2d4df"></path><path d="M0 88L0 239L64 185Z" fill="#e4eaee" stroke="#e4eaee"></path><path d="M64 185L0 239L100 319Z" fill="#c2d4df" stroke="#c2d4df"></path><path d="M131 469L101 600L201 600Z" fill="#e4eaee" stroke="#e4eaee"></path><path d="M0 239L0 295L100 319Z" fill="#e4eaee" stroke="#e4eaee"></path><path d="M821 324L900 237L816 184Z" fill="#e4eaee" stroke="#e4eaee"></path><path d="M816 184L900 68L798 85Z" fill="#e4eaee" stroke="#e4eaee"></path><path d="M798 85L900 0L778 0Z" fill="#b1c9d8" stroke="#b1c9d8"></path><path d="M900 386L821 324L790 415Z" fill="#d3dfe7" stroke="#d3dfe7"></path><path d="M900 275L900 237L821 324Z" fill="#d3dfe7" stroke="#d3dfe7"></path><path d="M0 295L0 371L100 319Z" fill="#5893b4" stroke="#5893b4"></path><path d="M900 465L900 386L790 415Z" fill="#5893b4" stroke="#5893b4"></path><path d="M900 465L790 415L765 511Z" fill="#e4eaee" stroke="#e4eaee"></path><path d="M0 0L0 88L91 79Z" fill="#6b9dbb" stroke="#6b9dbb"></path><path d="M0 526L101 600L131 469Z" fill="#7da8c2" stroke="#7da8c2"></path><path d="M900 237L900 68L816 184Z" fill="#4388ad" stroke="#4388ad"></path><path d="M811 600L900 465L765 511Z" fill="#d3dfe7" stroke="#d3dfe7"></path><path d="M712 600L811 600L765 511Z" fill="#4388ad" stroke="#4388ad"></path><path d="M134 0L0 0L91 79Z" fill="#7da8c2" stroke="#7da8c2"></path><path d="M0 371L0 526L131 469Z" fill="#d3dfe7" stroke="#d3dfe7"></path><path d="M900 68L900 0L798 85Z" fill="#8fb3c9" stroke="#8fb3c9"></path><path d="M0 526L0 600L101 600Z" fill="#c2d4df" stroke="#c2d4df"></path><path d="M811 600L900 600L900 465Z" fill="#4388ad" stroke="#4388ad"></path></g></svg>