<svg id="visual" viewBox="0 0 900 600" width="900" height="600" xmlns="http://www.w3.org/2000/svg" xmlns:xlink="http://www.w3.org/1999/xlink" version="1.1"><rect x="0" y="0" width="900" height="600" fill="#f4f6f2"></rect><path d="M0 345L30 368.7C60 392.3 120 439.7 180 444.8C240 450 300 413 360 405.7C420 398.3 480 420.7 540 433.8C600 447 660 451 720 448.5C780 446 840 437 870 432.5L900 428L900 601L870 601C840 601 780 601 720 601C660 601 600 601 540 601C480 601 420 601 360 601C300 601 240 601 180 601C120 601 60 601 30 601L0 601Z" fill="#06f6c3" stroke-linecap="round" stroke-linejoin="miter"></path></svg>